<?xml version="1.0" encoding="utf-8"?>
<!-- Generator: Adobe Illustrator 16.0.0, SVG Export Plug-In . SVG Version: 6.00 Build 0)  -->
<!DOCTYPE svg PUBLIC "-//W3C//DTD SVG 1.1//EN" "http://www.w3.org/Graphics/SVG/1.1/DTD/svg11.dtd">
<svg version="1.1" id="Capa_1" xmlns="http://www.w3.org/2000/svg" xmlns:xlink="http://www.w3.org/1999/xlink" x="0px" y="0px"
	 width="2188.84px" height="261.879px" viewBox="0 0 2188.84 261.879" enable-background="new 0 0 2188.84 261.879"
	 xml:space="preserve">
<g>
	<path fill="#5B7998" d="M359.693,157.274v53.214h144.713v46.216H305.112V6.028h187.086v46.214H359.693v56.366h117.063v48.666
		H359.693z"/>
	<path fill="#5B7998" d="M544.264,7.08h56.377v249.974h-56.377V7.08z"/>
	<path fill="#5B7998" d="M688.617,182.831c5.745,32.91,35.908,37.461,56.736,37.461c19.75,0,49.912-5.602,49.912-31.158
		c0-53.215-152.612-18.906-152.612-112.384c0-51.465,49.555-75.622,95.877-75.622c53.505,0,102.7,22.756,102.7,80.523l-54.582-7.702
		c-6.822-29.058-33.036-30.108-50.631-30.108c-17.955,0-38.782,7.352-38.782,28.359c0,18.555,12.209,22.755,76.485,37.811
		c19.031,4.552,76.127,16.104,76.127,72.821c0,45.863-36.628,80.174-106.648,80.174c-57.454,0-109.163-27.308-109.163-88.926
		L688.617,182.831z"/>
	<path fill="#5B7998" d="M883.238,7.08h56.377v249.974h-56.377V7.08z"/>
	<path fill="#B0B0B0" d="M1163.943,149.922h-118.859v106.432h-54.939V5.679h54.939v90.677h118.859V6.378h55.3v249.976h-55.3V149.922
		z"/>
	<path fill="#B0B0B0" d="M1375.445,260.204c-73.254,0-132.504-57.768-132.504-129.188c0-71.771,59.25-129.539,132.504-129.539
		c72.896,0,132.861,57.768,132.861,129.539C1508.308,202.437,1448.341,260.204,1375.445,260.204z M1297.163,131.016
		c0,41.662,35.551,76.322,78.282,76.322s77.563-34.66,77.563-76.322c0-41.663-34.831-76.673-77.563-76.673
		S1297.163,89.353,1297.163,131.016z"/>
	<path fill="#B0B0B0" d="M1605.621,53.293h-81.514V7.43h218.687v46.213h-80.796v203.411h-56.377V53.293z"/>
	<path fill="#B0B0B0" d="M1823.229,157.274v53.214h144.715v46.216h-199.295V6.028h187.084v46.214h-132.504v56.366h117.063v48.666
		H1823.229z"/>
	<path fill="#B0B0B0" d="M2002.413,255.301V6.028h55.299v203.061h131.428v46.213H2002.413z"/>
	<rect x="135.548" y="5.668" fill="#5B7998" width="122.146" height="119.088"/>
	<rect x="135.548" y="137.965" fill="#B0B0B0" width="122.146" height="119.09"/>
	<rect x="0.299" y="137.965" fill="#5B7998" width="122.146" height="119.09"/>
</g>
</svg>
